<svg xmlns:svg="http://www.w3.org/2000/svg" xmlns="http://www.w3.org/2000/svg" version="1.1">
	<line id="10" x1="140.000000" y1="65.000000" x2="160.000000" y2="66.000000" stroke="#002255
" fill-opacity="50" />
	<line id="11" x1="130.309230" y1="93.181460" x2="150.309230" y2="94.181460" stroke="#002255
" fill-opacity="50" />
	<line id="12" x1="109.767498" y1="112.853355" x2="129.767498" y2="113.853355" stroke="#002255
" fill-opacity="50" />
	<line id="13" x1="83.795528" y1="120.532777" x2="103.795528" y2="121.532777" stroke="#002255
" fill-opacity="50" />
	<line id="14" x1="58.529394" y1="115.691312" x2="78.529394" y2="116.691312" stroke="#002255
" fill-opacity="50" />
	<line id="15" x1="39.379496" y1="100.620504" x2="59.379496" y2="101.620504" stroke="#002255
" fill-opacity="50" />
	<line id="16" x1="29.872368" y1="79.662856" x2="49.872368" y2="80.662856" stroke="#002255
" fill-opacity="50" />
	<line id="17" x1="31.023177" y1="58.034755" x2="51.023177" y2="59.034755" stroke="#002255
" fill-opacity="50" />
	<line id="18" x1="41.344893" y1="40.548134" x2="61.344893" y2="41.548134" stroke="#002255
" fill-opacity="50" />
	<line id="19" x1="57.441917" y1="30.540323" x2="77.441917" y2="31.540323" stroke="#002255
" fill-opacity="50" />
	<line id="20" x1="60.392856" y1="36.331865" x2="80.392856" y2="37.331865" stroke="#002255
" fill-opacity="50" />
	<line id="21" x1="46.603503" y1="44.368738" x2="66.603503" y2="45.368738" stroke="#002255
" fill-opacity="50" />
	<line id="22" x1="37.443151" y1="59.051579" x2="57.443151" y2="60.051579" stroke="#002255
" fill-opacity="50" />
	<line id="23" x1="36.054236" y1="77.654246" x2="56.054236" y2="78.654246" stroke="#002255
" fill-opacity="50" />
	<line id="24" x1="43.975690" y1="96.024310" x2="63.975690" y2="97.024310" stroke="#002255
" fill-opacity="50" />
	<line id="25" x1="60.538005" y1="109.509445" x2="80.538005" y2="110.509445" stroke="#002255
" fill-opacity="50" />
	<line id="26" x1="82.778704" y1="114.112803" x2="102.778704" y2="115.112803" stroke="#002255
" fill-opacity="50" />
	<line id="27" x1="105.946894" y1="107.594745" x2="125.946894" y2="108.594745" stroke="#002255
" fill-opacity="50" />
	<line id="28" x1="124.517688" y1="90.230522" x2="144.517688" y2="91.230522" stroke="#002255
" fill-opacity="50" />
	<line id="29" x1="133.500000" y1="65.000000" x2="153.500000" y2="66.000000" stroke="#002255
" fill-opacity="50" />
</svg>