<svg xmlns:svg="http://www.w3.org/2000/svg" xmlns="http://www.w3.org/2000/svg" version="1.1">
	<rect id="5" style="fill:#00ff00;fill-opacity:0.5;stroke:#00ff00" height="7.000000" width="2.000000" y="15.000000" x="15.000000" />
	<rect id="7" style="fill:#00ff00;fill-opacity:0.5;stroke:#00ff00" height="7.000000" width="5.000000" y="15.000000" x="29.000000" />
	<rect id="8" style="fill:#00ff00;fill-opacity:0.5;stroke:#00ff00" height="7.000000" width="6.500000" y="15.000000" x="36.000000" />
	<rect id="9" style="fill:#00ff00;fill-opacity:0.5;stroke:#00ff00" height="7.000000" width="8.000000" y="15.000000" x="43.000000" />
	<rect id="10" style="fill:#00ff00;fill-opacity:0.5;stroke:#00ff00" height="7.000000" width="9.500000" y="15.000000" x="50.000000" />
	<rect id="11" style="fill:#00ff00;fill-opacity:0.5;stroke:#00ff00" height="7.000000" width="11.000000" y="15.000000" x="57.000000" />
	<rect id="12" style="fill:#00ff00;fill-opacity:0.5;stroke:#00ff00" height="7.000000" width="12.500000" y="15.000000" x="64.000000" />
	<rect id="13" style="fill:#00ff00;fill-opacity:0.5;stroke:#00ff00" height="7.000000" width="14.000000" y="15.000000" x="71.000000" />
	<rect id="14" style="fill:#00ff00;fill-opacity:0.5;stroke:#00ff00" height="7.000000" width="15.500000" y="15.000000" x="78.000000" />
	<rect id="15" style="fill:#00ff00;fill-opacity:0.5;stroke:#00ff00" height="7.000000" width="17.000000" y="15.000000" x="85.000000" />
	<rect id="16" style="fill:#00ff00;fill-opacity:0.5;stroke:#00ff00" height="7.000000" width="18.500000" y="15.000000" x="92.000000" />
	<rect id="17" style="fill:#00ff00;fill-opacity:0.5;stroke:#00ff00" height="7.000000" width="20.000000" y="15.000000" x="99.000000" />
	<rect id="18" style="fill:#00ff00;fill-opacity:0.5;stroke:#00ff00" height="7.000000" width="21.500000" y="15.000000" x="106.000000" />
	<rect id="19" style="fill:#00ff00;fill-opacity:0.5;stroke:#00ff00" height="7.000000" width="23.000000" y="15.000000" x="113.000000" />
	<rect id="20" style="fill:#00ff00;fill-opacity:0.5;stroke:#00ff00" height="7.000000" width="24.500000" y="15.000000" x="120.000000" />
	<rect id="21" style="fill:#00ff00;fill-opacity:0.5;stroke:#00ff00" height="7.000000" width="26.000000" y="15.000000" x="127.000000" />
	<rect id="22" style="fill:#00ff00;fill-opacity:0.5;stroke:#00ff00" height="7.000000" width="27.500000" y="15.000000" x="134.000000" />
	<rect id="23" style="fill:#00ff00;fill-opacity:0.5;stroke:#00ff00" height="7.000000" width="29.000000" y="15.000000" x="141.000000" />
	<rect id="24" style="fill:#00ff00;fill-opacity:0.5;stroke:#00ff00" height="7.000000" width="30.500000" y="15.000000" x="148.000000" />
	<line id="9999" x1="8.000000" y1="1.000000" x2="8.000000" y2="70.500000" stroke="red" fill-opacity="50" />
	<line id="9999" x1="8.000000" y1="1.000000" x2="95.500000" y2="1.000000" stroke="red" fill-opacity="50" />
	<line id="9999" x1="95.500000" y1="1.000000" x2="95.500000" y2="70.500000" stroke="red" fill-opacity="50" />
	<line id="9999" x1="8.000000" y1="70.500000" x2="95.500000" y2="70.500000" stroke="red" fill-opacity="50" />
</svg>